<svg xmlns="http://www.w3.org/2000/svg" viewBox="0 0 977.12 290.55" fill="currentColor" aria-label="MIZAN">
  <path d="M0,.76h116.86s16.58,132.66,16.58,132.66L151.61.76h116.07c-6.48,96.6-6.48,193.19,0,289.79h-89.23s0-74.22,0-74.22l-18.95,74.22h-50.54l-20.53-76.59v76.59H0C8.09,194.16,8.09,97.56,0,.76Z"></path>
  <path d="M367.25.76h-89.62c-6.48,96.8-6.48,193.4,0,289.79h89.62c6.48-98.35,6.48-194.94,0-289.79Z"></path>
  <path d="M574.22,290.55c1.45-34.16,3.97-68.86,7.31-103.97h-87.22s97.74-91.1,97.74-91.1c4.1-29.96,9.25-61.67,15.2-94.71h-232.14c2.85,25.07,4.74,58.2,5.44,101.3h92.21s-92.38,86.91-92.38,86.91c-.65,44.16-2.17,80.85-5.27,101.58h199.11Z"></path>
  <path d="M784.49,290.55c-3.81-94.35-15.59-191.13-33.5-289.79h-133.63c-19.25,96.66-30.82,193.26-34.67,289.79h91.16v-66.12h19.09v66.12h91.55ZM677.74,169.56l2.73-55.35h5.85l3.12,55.35h-11.69Z"></path>
  <path d="M760.04.76c17.34,96.14,29.52,192.74,32.83,289.79h70.83s-6.63-115.16-6.63-115.16l35.86,115.16h84.19C971.74,193.45,971.74,97.11,977.12,0h-88.87s4.29,118.16,4.29,118.16L855.9.76h-95.86Z"></path>
</svg>